<?xml version="1.0" standalone="no"?>
<!DOCTYPE svg PUBLIC "-//W3C//DTD SVG 1.1//EN" "http://www.w3.org/Graphics/SVG/1.1/DTD/svg11.dtd" >
<svg xmlns="http://www.w3.org/2000/svg">
<metadata>Generated by IcoMoon</metadata>
<defs>
<font id="icomoon" horiz-adv-x="1024">
<font-face units-per-em="1024" ascent="960" descent="-64" />
<missing-glyph horiz-adv-x="1024" />
<glyph unicode="&#x20;" horiz-adv-x="512" d="" />
<glyph unicode="&#xe900;" d="M551.253 243.968c-9.216-25.003-36.949-37.803-61.952-28.501l-90.112 33.451c-24.917 9.216-37.632 36.949-28.416 61.867l19.371 52.139c-18.432 15.104-34.56 28.843-48.299 41.301-13.739 12.373-29.355 27.648-46.933 45.824-17.579 18.091-32.256 35.328-44.203 51.627-11.947 16.213-23.381 34.901-34.304 55.893s-18.603 41.557-23.040 61.525c-4.437 19.968-6.059 41.813-5.035 65.451 1.024 22.101 5.376 44.288 13.141 66.304 15.104 43.264 43.008 81.408 80.213 108.032 42.411 30.379 93.184 47.189 152.235 50.517 55.381 3.157 112.384-6.144 171.008-27.904 89.173-33.024 153.685-85.76 193.707-158.208 30.891-55.893 42.667-114.091 35.243-174.592-3.499-28.587-32.853-46.421-59.904-36.437-53.248 19.712-136.448 50.603-175.531 65.109-11.947 4.437-18.773 16.811-16.384 29.269 8.448 45.312-5.461 74.667-41.643 88.064-10.411 3.84-20.224 4.437-29.525 1.792s-16.896-7.595-22.955-14.848c-6.059-7.253-10.837-13.824-14.421-19.797s-6.4-11.691-8.448-17.237c-23.040-62.123 22.613-149.675 136.96-262.656l-50.773-137.984zM294.4 45.995c-13.227 23.979-14.507 50.261-3.925 78.848 10.411 28.075 28.075 46.848 52.992 56.235s52.395 8.533 82.347-2.56c28.757-10.667 49.237-27.563 61.44-50.773s13.056-48.811 2.645-76.885c-10.581-28.587-28.331-47.787-53.163-57.685s-51.285-9.643-79.36 0.768c-28.757 10.752-49.749 28.075-62.976 52.053z" />
<glyph unicode="&#xe901;" glyph-name="Clover" d="M972.769 407.357c0 126.71-105.011 231.311-234.557 234.291 1.526 10.824 2.345 21.832 2.345 32.748 0 129.229-107.735 234.332-240.189 234.332-132.413 0-240.118-105.103-240.118-234.332 0-15.38 1.546-30.751 4.588-45.783-119.962-12.882-213.606-114.719-213.606-232.847 0-129.208 107.756-234.342 240.21-234.342 72.038 0 141.025 32.143 186.317 86.333-18.964-85.268-75.5-191.498-234.322-233.411l-6.615-1.761 3.359-25.313h547.717l2.959 25.539-6.656 1.536c-7.188 1.772-174.326 44.882-228.168 234.117 44.913-47.411 110.213-75.407 176.589-75.407 132.403 0 240.148 105.083 240.148 234.301z" />
<glyph unicode="&#xe902;" glyph-name="diamonds" d="M501.76 908.8l-286.72-460.8 286.72-460.8 286.72 460.8-286.72 460.8z" />
<glyph unicode="&#xe903;" glyph-name="heart" d="M972.8 598.364c0 137.523-111.432 248.996-248.883 248.996-89.743 0-168.131-47.688-211.917-118.958-43.786 71.27-122.204 118.958-211.958 118.958-137.452 0-248.842-111.473-248.842-248.996 0-74.865 33.157-141.855 85.422-187.464l352.666-352.85c6.021-6.021 14.193-9.411 22.712-9.411s16.681 3.389 22.712 9.411l352.655 352.85c52.265 45.609 85.432 112.599 85.432 187.464z" />
<glyph unicode="&#xe904;" glyph-name="Deal-the-card" d="M972.657 709.468l-79.862-697.201c-0.85-7.465-4.618-14.275-10.455-18.934-4.997-3.994-11.172-6.134-17.49-6.134-1.065 0-2.14 0.061-3.215 0.184l-329.636 38.216 283.709 114.278c43.203 17.398 64.276 66.908 46.981 110.367l-208.814 524.667 294.052-34.099c15.432-1.792 26.501-15.821 24.73-31.345zM794.798 192.42l-373.217-150.333c-0.020 0-0.031-0.010-0.051-0.010l-0.461-0.195c-0.195-0.072-0.389-0.154-0.584-0.225l-71.393-28.764c-3.359-1.362-6.912-2.038-10.455-2.038-3.779 0-7.547 0.768-11.080 2.284-6.851 2.959-12.268 8.53-15.043 15.503l-259.308 651.54c-5.775 14.51 1.239 30.976 15.657 36.792l445.706 179.528c6.932 2.796 14.674 2.703 21.535-0.256 6.851-2.949 12.268-8.53 15.043-15.493l259.308-651.54c5.775-14.51-1.239-30.986-15.657-36.792zM548.628 549.868c-19.026 47.811-73.165 71.127-120.678 51.988-17.039-6.861-31.334-18.381-41.533-33.065-17.449 3.543-35.697 1.956-52.736-4.905-47.514-19.139-70.697-73.595-51.671-121.405 44.831-112.64 183.706-117.811 189.594-117.975 0.266-0.010 0.522-0.010 0.788-0.010 7.485 0 14.684 3 19.968 8.366 4.147 4.219 101.1 104.376 56.269 217.006zM334.234 463.524c-3.625 9.124-3.512 19.118 0.338 28.15 3.84 9.032 10.957 16.026 20.019 19.671 4.393 1.772 9.001 2.652 13.588 2.652 6.298 0 12.575-1.659 18.237-4.925 7.465-4.311 16.476-4.946 24.463-1.731s14.070 9.933 16.507 18.227c3.215 10.885 11.039 19.538 21.473 23.747 9.062 3.645 19.005 3.533 27.986-0.338 8.98-3.86 15.923-11.018 19.548-20.142 24.627-61.88-17.172-123.494-35.799-146.616-29.307 3.686-101.56 18.995-126.362 81.306z" />
<glyph unicode="&#xe905;" glyph-name="Down" d="M51.651 663.040l460.339-439.88 460.349 439.88h-920.689z" />
<glyph unicode="&#xe906;" glyph-name="facebook" d="M748.8 908.452l-122.86 0.184c-138.004 0-227.185-88.986-227.185-226.724v-104.54h-123.525c-10.67 0-19.323-8.407-19.323-18.79v-151.46c0-10.383 8.663-18.79 19.323-18.79h123.515v-382.177c0-10.383 8.643-18.79 19.313-18.79h161.157c10.67 0 19.313 8.417 19.313 18.79v382.177h144.415c10.67 0 19.313 8.407 19.313 18.79l0.061 151.46c0 4.987-2.038 9.759-5.652 13.281-3.635 3.533-8.55 5.509-13.67 5.509h-144.456v88.617c0 42.598 10.435 64.215 67.471 64.215l82.77 0.031c10.66 0 19.302 8.417 19.302 18.79v140.636c0 10.363-8.632 18.77-19.282 18.79z" />
<glyph unicode="&#xe907;" glyph-name="family" d="M804.055 238.51c-8.428-0.492-15.995 5.929-16.896 14.387-1.853 17.592-5.857 35.615-15.698 50.616v-16.568l36.291-145.756c0.614-3.195-0.205-6.42-2.222-8.888-2.028-2.468-5.007-3.881-8.182-3.881h-29.030l-6.666-121.416c-0.543-9.851-8.868-17.818-18.668-17.828-9.882-0.010-18.278 8.079-18.76 18.002l-5.499 121.242h-1.997l-6.666-121.416c-0.543-9.851-8.868-17.818-18.668-17.828-9.882-0.010-18.278 8.079-18.76 18.002l-5.499 121.242h-29.676c-12.134 0-11.080 6.482-9.472 12.739l35.717 145.213v17.459c-9.759-15.37-14.008-33.014-15.892-50.934-0.901-8.335-8.284-14.756-16.609-14.408-8.438 0.358-15.34 7.506-15.401 16.005-0.092 12.708 0.737 25.088 3.308 37.55 4.291 20.808 13.763 40.53 26.583 57.344 7.322 9.605 15.79 18.35 25.129 25.979 4.014 3.277 8.172 6.369 12.513 9.196 3.492 2.263 7.117 4.608 11.059 6.001 14.694 7.055 32.225 6.973 46.848-0.236 5.151-2.007 9.912-5.325 14.418-8.499 19.261-13.609 35.297-31.693 46.52-52.5 4.588-8.509 8.202-17.521 11.008-26.788 3.256-10.742 5.519-22.405 5.775-33.659 0.164-4.803 0.236-9.574 0.195-14.387-0.072-8.376-6.789-15.503-15.104-15.985zM818.964 268.882c-0.072 2.99 0.102-2.98 0 0zM735.652 404.152c-16.538-5.898-35.359-3.205-49.603 7.096-14.039 10.158-22.538 26.808-22.538 44.227 0 10.476 3.031 20.849 8.714 29.635 9.38 14.531 25.457 23.88 42.66 24.73 17.347 0.86 34.335-6.902 45.117-20.603 10.885-13.834 14.428-32.594 9.37-49.48-4.915-16.435-17.654-29.87-33.72-35.604zM657.644 484.352c-4.454 18.145-9.943 35.932-17.766 52.92 0-0.922 0-1.853 0-2.775 0-17.674 0-35.348 0-53.023 0-24.678 0-49.357 0-74.045 0-8.571 0-17.142 0-25.713 0-6.113 0.113-12.227-0.553-18.309-5.427-6.984-10.424-14.397-14.633-22.19-7.086-13.169-12.503-27.023-15.862-41.636-3.379-14.612-4.475-29.276-4.352-44.247 0.113-16.353 11.274-30.218 26.634-34.12l-1.669-33.3-12.329-53.688c0 0-4.106-12.605 8.95-13.65l-5.007-99.779c-0.85-16.937-15.155-30.659-32.020-30.648-16.927 0.010-31.263 13.916-32.031 30.925l-9.523 229.448-11.52-229.734c-0.85-16.937-15.165-30.659-32.020-30.638-16.937 0.010-31.273 13.916-32.041 30.925l-5.683 137.114 3.164 56.166c0 0 13.496 0 41.298 0 24.883 0 23.992 22.487 21.381 33.3-1.925 7.987-36.004 133.079-36.004 133.079 3.492-0.891 7.148-1.382 10.895-1.413 24.74-0.215 45.691 20.552 45.896 45.435 0.154 18.289-0.686 36.342-3.645 54.395-4.362 26.563-13.158 52.664-25.846 76.38-19.804 37.048-48.077 69.253-82.268 93.512 12.964 11.592 25.917 23.173 38.881 34.765 1.188 1.065 49.408 48.251 110.131 19.2 5.837-2.796 11.622-5.949 17.009-9.513 6.41-4.239 12.544-8.919 18.442-13.855 12.093-10.291 23.245-21.658 33.219-34.038 15.288-18.954 27.525-39.967 37.622-62.116 7.895-17.357 15.36-40.335 20.081-58.788-28.549-4.741-49.203-16.712-58.829-40.346zM547.656 722.35c-22.794 0-45.076 8.612-62.003 23.982-25.999 23.624-36.649 60.969-27.003 94.874 9.441 33.208 37.376 59.075 71.045 65.741 34.324 6.779 70.267-6.912 91.515-34.857 21.309-28.047 24.934-66.99 9.114-98.519-15.616-31.109-48.046-51.22-82.668-51.22zM455.639 712.356c-14.1-31.877-46.326-52.951-80.988-52.951-14.592 0-29.082 3.645-41.933 10.598-30.679 16.62-49.111 50.668-46.408 85.617 2.673 34.632 25.999 65.29 58.491 76.984 33.044 11.899 70.892 2.56 94.771-23.296 23.89-25.866 30.351-64.666 16.067-96.952zM333.855 645.059c24.064 11.571 52.787 11.418 76.739-0.379 0.748-0.276 1.475-0.573 2.202-0.901 8.11-3.717 15.688-8.899 22.927-14.1 9.452-6.789 18.452-14.264 26.89-22.313 17.551-16.742 32.768-35.973 44.82-57.088 12.042-21.084 20.797-44.175 25.713-67.994 2.355-11.418 4.168-23.081 4.731-34.744 0.41-8.499 0.481-16.937 0.41-25.436-0.113-13.804-11.203-25.508-24.914-26.214-13.742-0.717-26.061 9.779-27.535 23.583-1.341 12.657-3.052 25.119-6.339 37.437-4.219 15.811-10.496 31.724-19.374 45.507v-35.41l61.276-223.652c1.024-5.396-0.297-9.615-3.328-13.322-3.041-3.697-7.506-5.816-12.268-5.816v-0.010h-50.432l-11.315-207.667c-0.881-16.189-14.602-29.256-30.72-29.215-16.138 0.051-29.809 13.292-30.597 29.501l-9.339 207.38h-2.57l-11.315-207.667c-0.881-16.189-14.602-29.256-30.72-29.204-16.138 0.051-29.809 13.281-30.597 29.491l-9.349 207.391h-51.139c-4.772 0-9.257 2.13-12.288 5.837s-4.239 8.54-3.318 13.251l61.44 226.396v33.229c-8.919-14.080-15.391-29.921-19.692-46.019-3.277-12.319-4.997-24.781-6.339-37.437-1.475-13.711-13.66-24.238-27.351-23.593-13.773 0.645-24.996 12.329-25.098 26.214 0 0.133 0 0.256 0 0.379-0.072 9.421-0.266 18.893 0.625 28.293 1.137 11.909 2.888 23.542 5.284 35.256 2.396 11.735 6.257 23.409 10.66 34.519 4.506 11.336 9.871 22.436 16.138 32.891 12.524 20.879 27.781 39.967 45.66 56.463 8.397 7.741 17.275 14.971 26.624 21.504 7.393 5.171 15.247 10.639 23.798 13.66z" />
<glyph unicode="&#xe908;" glyph-name="google-plus" d="M517.417 387.195c-36.905 0-73.82 0-110.715 0-15.36 0-36.27-2.376-45.251 4.362-10.742 8.059-7.219 39.741-7.219 58.747 0 14.787-1.915 33.536 4.332 42.23 5.294 7.393 15.053 7.281 27.914 7.281 14.602 0 29.204 0 43.807 0 69.796 0 139.612 0 209.408 0 0-0.328 0-0.645 0-0.973 1.423-2.273 0.481-8.847 0.481-12.134 0-10.189 0-20.388 0-30.587 0-44.134-6.185-81.541-19.261-112.62-4.372-10.404-7.373-20.49-12.513-30.095-29.819-55.726-71.373-98.57-126.607-128.645-13.394-7.291-28.559-12.995-43.325-18.442-5.294-1.956-9.912-2.028-15.401-3.881-12.37-4.188-26.972-5.448-40.919-8.745-6.38-1.505-15.503-0.696-20.695-1.454-9.533-1.382-27.453-1.628-34.662 0.481-2.734 0-5.458 0-8.182 0-9.001 2.099-18.862 1.352-27.924 3.891-20.9 5.847-42.179 9.452-60.17 18.442-13.199 6.595-26.747 12.698-38.994 20.388-55.194 34.652-97.731 85.484-122.276 150.979-6.001 16.005-8.991 33.352-13.476 50.964-2.488 9.8-1.423 21.064-3.85 30.587-0.584 2.314 0 8.305 0 12.134 0 8.509-1.055 19.077 0.481 26.696 1.434 7.127 0.41 17.51 2.406 25.733 4.495 18.463 7.444 35.86 13.476 51.937 3.727 9.933 6.062 19.046 10.598 28.16 34.335 69.059 84.511 117.34 155.003 149.996 14.817 6.871 31.611 10.732 48.138 15.534 14.203 4.137 32.686 4.035 46.694 6.799 3.686 0 7.383 0 11.069 0 8.909 0 21.576 0.717 27.443-0.973 2.56 0 5.13 0 7.7 0 3.052-0.707 8.131-1.229 11.069-1.935 1.608 0 3.215 0 4.813 0 9.103-2.345 19.333-2.744 28.406-5.827 15.053-5.12 31.037-8.673 44.769-15.534 14.438-7.229 28.365-14.991 41.4-23.306 7.045-4.495 13.609-8.704 20.214-13.588 4.209-3.123 7.895-7.526 12.032-10.68 5.038-3.84 11.96-8.827 14.93-14.561 3.226-6.246 1.843-15.892-1.444-20.879-2.857-4.332-8.387-8.499-12.524-11.643-5.652-4.311-9.748-11.233-15.401-15.534-7.66-5.837-14.889-13.087-21.658-19.907-3.891-3.912-12.032-13.292-20.705-11.653-9.82 1.864-11.581 5.96-17.807 10.68-5.581 4.229-11.080 8.735-16.855 12.626-16.824 11.315-36.086 18.657-57.764 25.242-31.734 9.626-76.268 4.045-102.533-5.827-53.627-20.163-91.566-56.934-111.677-110.684-4.792-12.8-6.267-26.747-9.636-41.257 0-2.263 0-4.536 0-6.799-1.649-7.762-1.731-21.371 0-29.123 1.464-6.543 0.215-13.271 1.935-19.425 3.011-10.803 5.56-22.17 9.626-31.549 2.898-6.687 4.403-12.769 7.7-18.934 19.743-36.946 48.927-64.133 86.651-83.005 11.377-5.693 24.658-8.581 37.54-12.626 3.205-1.004 5.407-0.164 8.673-0.973 18.708-4.577 46.162-3.768 64.020 0.973 9.615 2.56 18.473 3.082 26.962 6.799 34.58 15.165 62.495 33.71 83.272 62.618 5.212 7.25 11.039 14.725 15.411 22.815 2.017 3.758 2.877 7.24 4.813 11.172 2.222 4.516 5.734 9.564 6.257 15.534zM883.272 493.507c19.251 0 38.513 0 57.764 0 11.53 0 21.688 0.328 26.481-6.318 5.13-7.117 3.85-21.156 3.85-33.495 0-15.196 2.55-40.141-3.85-49.029-4.884-6.758-14.735-6.308-26.481-6.308-19.098 0-38.195 0-57.283 0-1.956-5.99-0.481-16.302-0.481-23.296 0-16.998 0-33.987 0-50.975-0.901-1.372-0.645-3.308-1.444-4.854-1.597-3.072-5.458-6.82-8.663-8.253-4.864-2.171-14.244-0.973-20.705-0.973-16.691 0-33.372 0-50.063 0-3.748 1.034-8.079 3.942-10.107 6.799-3.799 5.315-2.888 15.575-2.888 24.75 0 18.77 0 37.55 0 56.32-5.939 1.966-16.169 0.481-23.112 0.481-17.009 0-34.017 0-51.026 0-1.495 1.157-3.482 0.973-5.294 1.946-2.601 1.393-6.021 5.448-7.219 8.253-2.212 5.14-1.444 13.722-1.444 20.869 0 17.572-3.584 52.992 6.257 60.191 6.113 4.475 16.159 3.891 26.962 3.891 18.125 0 36.26 0 54.395 0 1.997 6.113 0.481 16.64 0.481 23.788 0 17.142 0 34.304 0 51.456 0.84 0.973 0.287 1.495 0.963 2.908 1.751 3.686 5.806 7.619 9.626 9.226 5.161 2.171 14.889 0.973 21.658 0.973 19.313 0 51.63 4.086 59.218-7.772 3.441-5.376 2.406-16.067 2.406-24.76 0-18.606 0-37.212 0-55.818z" />
<glyph unicode="&#xe909;" glyph-name="health" d="M932.669 508.621h-70.482v139.407h-243.057v-139.407h-139.766v-242.452h139.766v-139.080l-107.356-129.649-403.476 487.291c-35.83 43.684-57.324 99.523-57.324 160.369 0 139.991 113.736 253.46 254.044 253.46 85.248 0 160.676-41.902 206.756-106.179 46.080 64.276 121.518 106.158 206.766 106.158 140.298 0 254.034-113.5 254.034-253.481 0-50.217-14.643-96.031-39.905-136.438zM540.129 448.010h139.766v139.407h121.528v-139.407h139.756v-121.231h-139.756v-139.418h-121.528v139.418h-139.766v121.231z" />
<glyph unicode="&#xe90a;" d="M551.253 243.968c-9.216-25.003-36.949-37.803-61.952-28.501l-90.112 33.451c-24.917 9.216-37.632 36.949-28.416 61.867l19.371 52.139c-18.432 15.104-34.56 28.843-48.299 41.301-13.739 12.373-29.355 27.648-46.933 45.824-17.579 18.091-32.256 35.328-44.203 51.627-11.947 16.213-23.381 34.901-34.304 55.893s-18.603 41.557-23.040 61.525c-4.437 19.968-6.059 41.813-5.035 65.451 1.024 22.101 5.376 44.288 13.141 66.304 15.104 43.264 43.008 81.408 80.213 108.032 42.411 30.379 93.184 47.189 152.235 50.517 55.381 3.157 112.384-6.144 171.008-27.904 89.173-33.024 153.685-85.76 193.707-158.208 30.891-55.893 42.667-114.091 35.243-174.592-3.499-28.587-32.853-46.421-59.904-36.437-53.248 19.712-136.448 50.603-175.531 65.109-11.947 4.437-18.773 16.811-16.384 29.269 8.448 45.312-5.461 74.667-41.643 88.064-10.411 3.84-20.224 4.437-29.525 1.792s-16.896-7.595-22.955-14.848c-6.059-7.253-10.837-13.824-14.421-19.797s-6.4-11.691-8.448-17.237c-23.040-62.123 22.613-149.675 136.96-262.656l-50.773-137.984zM294.4 45.995c-13.227 23.979-14.507 50.261-3.925 78.848 10.411 28.075 28.075 46.848 52.992 56.235s52.395 8.533 82.347-2.56c28.757-10.667 49.237-27.563 61.44-50.773s13.056-48.811 2.645-76.885c-10.581-28.587-28.331-47.787-53.163-57.685s-51.285-9.643-79.36 0.768c-28.757 10.752-49.749 28.075-62.976 52.053z" />
<glyph unicode="&#xe90b;" d="M525.824 889.088l-3.755 8.107-3.413 7.339c5.803-0.939 11.691-2.048 17.493-3.243l3.84-8.277c-4.693-1.195-9.472-2.475-14.165-3.925 0 0 0 0 0 0z" />
<glyph unicode="&#xe90c;" d="M496.725 878.507l-13.995 30.379c0 0 0 0 0 0 5.547-0.427 11.179-0.939 16.811-1.621l10.752-23.381c-4.608-1.707-9.131-3.499-13.568-5.376v0z" />
<glyph unicode="&#xe90d;" d="M556.373 896.683c0.085 0 0.085 0 0.171-0.085 0 0-0.085 0-0.171 0.085v0z" />
<glyph unicode="&#xe90e;" d="M469.077 864.597v0l-20.821 45.397c5.376 0.085 10.667 0.085 16.043-0.085l17.579-38.315c-4.352-2.304-8.619-4.608-12.8-6.997z" />
<glyph unicode="&#xe90f;" d="M386.645 782.763c-3.072-5.291-5.973-10.667-8.619-16.213l-53.675 116.907c0 0 0 0 0 0 4.437 2.048 8.875 3.925 13.397 5.717l3.243-7.083 45.653-99.328z" />
<glyph unicode="&#xe910;" d="M368.299 743.339c-2.048-5.973-3.84-11.861-5.461-17.835l-65.877 143.445c4.181 2.56 8.448 4.864 12.715 7.168l59.733-130.048c-0.341-0.853-0.768-1.792-1.109-2.731z" />
<glyph unicode="&#xe911;" d="M355.157 676.949c-0.171-2.901-0.085-5.717-0.171-8.619l-83.712 182.443c3.413 2.731 6.827 5.547 10.325 8.021 0.512 0.341 1.024 0.683 1.536 1.024l74.155-161.536c-0.939-7.083-1.792-14.165-2.133-21.333z" />
<glyph unicode="&#xe912;" d="M207.787 766.891c2.475 5.717 5.291 11.349 8.277 16.896l242.432-528.043-7.168-19.285-41.387 90.112-6.656 14.592-22.443 48.896-173.056 376.832z" />
<glyph unicode="&#xe913;" d="M365.995 382.976c-8.704 7.424-16.811 14.507-24.235 21.163-0.853 0.768-1.792 1.621-2.645 2.475l-145.408 316.843c1.621 7.253 3.669 14.592 5.973 21.845l166.315-362.325z" />
<glyph unicode="&#xe914;" d="M294.912 449.963c-6.912 7.083-13.227 14.080-19.285 20.907l-87.381 190.293c-0.256 7.595-0.341 15.275 0 23.296 0.171 3.243 0.512 6.485 0.853 9.813l117.76-256.512c-3.84 3.84-7.851 7.936-11.947 12.203z" />
<glyph unicode="&#xe915;" d="M216.405 557.483c-7.253 13.824-12.885 27.477-17.237 40.875l26.624-58.027c-3.157 5.461-6.315 11.179-9.387 17.152z" />
<glyph unicode="&#xe916;" d="M455.083 855.808c-2.219-1.451-4.437-2.901-6.571-4.437-1.877-1.365-3.669-2.816-5.461-4.267 0 0 0 0 0 0l-14.763 32.171-13.056 28.501c5.035 0.512 10.24 1.024 15.445 1.365l16.981-36.949 7.424-16.384z" />
<glyph unicode="&#xe917;" d="M422.997 851.712l7.083-15.36c-3.84-3.413-7.509-6.997-11.093-10.752l-35.413 77.056c0 0 0 0 0 0 4.864 1.024 9.813 1.963 14.763 2.731l8.277-18.091 16.384-35.584z" />
<glyph unicode="&#xe918;" d="M381.952 866.901l25.088-54.613c-3.499-4.267-6.827-8.619-9.984-13.141l-43.861 95.573c0 0 0 0 0 0 4.608 1.536 9.387 2.816 14.165 4.181l14.592-32z" />
<glyph unicode="&#xe919;" d="M395.179 319.488l38.23-83.371-19.285 7.168-26.112 56.917-11.691 25.429 4.352 11.776 2.816 7.595 4.693-10.411z" />
<glyph unicode="&#xe91a;" d="M455.851 448.768c1.963-2.133 3.84-4.181 5.888-6.315 8.533-8.789 16.555-16.896 24.235-24.405l18.091-39.339-7.168-19.285-18.944 41.216-22.101 48.128z" />
<glyph unicode="&#xe91b;" d="M258.475 839.509l99.755-217.344c0.597-3.584 1.195-7.253 1.963-10.667 4.437-19.968 12.117-40.533 23.040-61.525 10.496-20.139 21.419-38.059 32.853-53.845l8.277-18.005 16.384-35.669 48.043-104.704-7.168-19.285-234.069 509.867c3.584 3.84 7.168 7.595 10.923 11.179z" />
<glyph unicode="&#xe91c;" d="M235.947 814.421l237.653-517.717-7.168-19.285-240.213 523.349c3.072 4.693 6.315 9.216 9.728 13.653z" />
<glyph unicode="&#xe91d;" d="M392.021 252.245c-6.656 3.755-12.117 9.045-16.128 15.104-6.827 10.325-9.643 23.040-7.168 35.669l11.264-24.576 12.032-26.197z" />
<glyph unicode="&#xe91e;" d="M303.189 149.419l16.043-34.901 57.941-126.208c-6.059 1.28-12.203 2.987-18.432 5.205l-64.341 140.288c2.475 5.717 5.461 10.837 8.789 15.616z" />
<glyph unicode="&#xe91f;" d="M303.957 73.557l31.829-69.376c-9.472 5.547-17.835 12.032-25.003 19.541v0l-13.995 30.549-13.312 28.928c-0.427 8.192 0.341 16.555 2.219 25.173 0.256 1.109 0.427 2.219 0.768 3.328l1.109-2.475 16.384-35.669z" />
<glyph unicode="&#xe920;" d="M371.883 187.221c5.291 0.341 10.667 0.256 16.128-0.171l20.48-44.629c-0.427-1.109-0.939-2.133-1.365-3.243-2.219-6.059-3.755-12.203-4.779-18.347l-15.531 33.877-14.933 32.512z" />
<glyph unicode="&#xe921;" d="M341.163 179.968c0.768 0.341 1.536 0.683 2.304 1.024 0.171 0.085 0.256 0.085 0.427 0.171 3.669 1.365 7.424 2.475 11.179 3.413l52.309-113.92c1.963-5.291 4.267-10.411 6.997-15.275l27.392-59.733c-1.707-0.768-3.328-1.707-5.12-2.389-2.816-1.109-5.632-2.048-8.448-2.901l-87.040 189.611z" />
<glyph unicode="&#xe922;" d="M356.352 72.704l-29.099 63.488-12.373 26.88c3.669 3.499 7.509 6.656 11.691 9.387l7.765-16.981 77.397-168.619c-5.205-0.683-10.411-0.939-15.701-0.768l-39.68 86.613z" />
<glyph unicode="&#xe923;" d="M418.219 160.341l-10.837 23.637c6.059-1.451 12.203-3.157 18.432-5.547 0.085 0 0.085 0 0.171-0.085l2.475-5.461c-3.755-3.84-7.168-8.107-10.24-12.544z" />
<glyph unicode="&#xe924;" d="M281.685 858.88c36.693 26.283 79.701 42.411 128.939 48.469-27.563-8.533-52.907-20.821-75.691-37.12-37.205-26.709-65.109-64.853-80.213-108.032-7.765-22.101-12.117-44.203-13.141-66.304-1.109-23.637 0.597-45.483 5.035-65.451s12.117-40.533 23.040-61.525c10.923-20.992 22.357-39.68 34.304-55.893 11.947-16.299 26.624-33.451 44.203-51.627s33.195-33.451 46.933-45.824c13.739-12.373 29.867-26.197 48.299-41.301l-19.285-52.224c-9.216-24.917 3.499-52.651 28.416-61.867l88.405-32.768c-12.885-13.483-33.024-18.859-51.627-11.947l-90.112 33.451c-24.917 9.216-37.632 36.949-28.416 61.867l19.371 52.139c-18.432 15.104-34.56 28.843-48.299 41.301-13.739 12.373-29.355 27.648-46.933 45.824-17.579 18.091-32.256 35.328-44.203 51.627-11.947 16.213-23.381 34.901-34.304 55.893s-18.603 41.557-23.040 61.525c-4.437 19.968-6.059 41.813-5.035 65.451 1.024 22.187 5.376 44.288 13.141 66.304 15.104 43.179 42.923 81.323 80.213 108.032z" />
<glyph unicode="&#xe925;" d="M281.685 858.88c36.693 26.283 79.701 42.411 128.939 48.469-27.563-8.533-52.907-20.821-75.691-37.12-37.205-26.709-65.109-64.853-80.213-108.032-7.765-22.101-12.117-44.203-13.141-66.304-1.109-23.637 0.597-45.483 5.035-65.451s12.117-40.533 23.040-61.525c10.923-20.992 22.357-39.68 34.304-55.893 11.947-16.299 26.624-33.451 44.203-51.627s33.195-33.451 46.933-45.824c13.739-12.373 29.867-26.197 48.299-41.301l-19.285-52.224c-9.216-24.917 3.499-52.651 28.416-61.867l88.405-32.768c-12.885-13.483-33.024-18.859-51.627-11.947l-90.112 33.451c-24.917 9.216-37.632 36.949-28.416 61.867l19.371 52.139c-18.432 15.104-34.56 28.843-48.299 41.301-13.739 12.373-29.355 27.648-46.933 45.824-17.579 18.091-32.256 35.328-44.203 51.627-11.947 16.213-23.381 34.901-34.304 55.893s-18.603 41.557-23.040 61.525c-4.437 19.968-6.059 41.813-5.035 65.451 1.024 22.187 5.376 44.288 13.141 66.304 15.104 43.179 42.923 81.323 80.213 108.032z" />
<glyph unicode="&#xe926;" d="M582.059 606.635c8.363 44.544-5.035 73.643-39.851 87.381 5.888 6.656 13.141 11.264 22.016 13.824 9.301 2.645 19.115 2.048 29.525-1.792 36.267-13.397 50.091-42.837 41.643-88.064-2.304-12.459 4.523-24.917 16.384-29.269 38.229-14.165 118.357-43.861 171.691-63.659-11.691-13.483-31.061-19.541-49.408-12.8-53.248 19.712-136.448 50.603-175.531 65.109-12.032 4.437-18.859 16.811-16.469 29.269z" />
<glyph unicode="&#xe927;" d="M582.059 606.635c8.363 44.544-5.035 73.643-39.851 87.381 5.888 6.656 13.141 11.264 22.016 13.824 9.301 2.645 19.115 2.048 29.525-1.792 36.267-13.397 50.091-42.837 41.643-88.064-2.304-12.459 4.523-24.917 16.384-29.269 38.229-14.165 118.357-43.861 171.691-63.659-11.691-13.483-31.061-19.541-49.408-12.8-53.248 19.712-136.448 50.603-175.531 65.109-12.032 4.437-18.859 16.811-16.469 29.269z" />
<glyph unicode="&#xe928;" d="M343.467 180.992c13.397 5.035 27.477 6.997 42.24 6.229-19.115-10.411-33.195-27.392-41.984-51.115-10.581-28.587-9.301-54.869 3.925-78.848s34.219-41.301 62.976-51.968c12.117-4.523 23.979-6.997 35.499-7.68-3.072-1.621-6.144-3.157-9.472-4.437-24.832-9.899-51.285-9.643-79.36 0.768-28.757 10.667-49.749 27.989-62.976 51.968s-14.507 50.261-3.925 78.848c10.496 28.075 28.16 46.848 53.077 56.235z" />
<glyph unicode="&#xe929;" d="M343.467 180.992c13.397 5.035 27.477 6.997 42.24 6.229-19.115-10.411-33.195-27.392-41.984-51.115-10.581-28.587-9.301-54.869 3.925-78.848s34.219-41.301 62.976-51.968c12.117-4.523 23.979-6.997 35.499-7.68-3.072-1.621-6.144-3.157-9.472-4.437-24.832-9.899-51.285-9.643-79.36 0.768-28.757 10.667-49.749 27.989-62.976 51.968s-14.507 50.261-3.925 78.848c10.496 28.075 28.16 46.848 53.077 56.235z" />
<glyph unicode="&#xe92a;" d="M425.899 178.432v0c-0.085 0-0.085 0.085-0.171 0.085-3.157 1.195-6.315 2.219-9.472 3.157-10.496 3.157-20.651 5.035-30.549 5.547v0 0c-1.877 0.085-3.755 0.171-5.547 0.171-0.768 0-1.451 0-2.219 0-2.048 0-4.096 0-6.144-0.171v0 0c-2.475-0.171-4.864-0.512-7.339-0.853-0.171 0-0.427 0-0.597-0.085-2.987-0.427-5.973-1.024-8.875-1.792v0 0c-0.085 0-0.171 0-0.256-0.085-0.427-0.085-0.939-0.171-1.365-0.256-0.939-0.256-1.877-0.597-2.731-0.853-2.304-0.683-4.523-1.365-6.827-2.219-0.171-0.085-0.256-0.085-0.427-0.171-6.997-2.645-13.397-6.144-19.285-10.24-0.683-0.427-1.28-0.939-1.963-1.451s-1.28-0.939-1.963-1.451c-6.485-5.12-12.203-11.349-17.152-18.432v0c0 0 0 0 0 0-1.621-2.304-3.157-4.779-4.608-7.339-0.171-0.256-0.256-0.512-0.427-0.768-2.901-5.12-5.461-10.581-7.68-16.555-2.645-7.168-4.523-14.165-5.717-20.992-0.427-2.56-0.683-5.12-0.853-7.68 0-0.171-0.085-0.427-0.085-0.597-0.085-1.451-0.171-2.901-0.256-4.352-0.085-1.877-0.085-3.755 0-5.632 0-0.683-0.085-1.28 0-1.963 0.171-3.243 0.512-6.571 1.024-9.728 1.621-9.643 4.864-18.944 9.813-27.904 4.523-8.192 10.069-15.616 16.469-22.272v0 0c1.621-1.621 3.243-3.243 4.949-4.779 0.427-0.427 0.939-0.853 1.365-1.195 1.621-1.451 3.328-2.901 5.035-4.267 0.512-0.341 0.939-0.768 1.451-1.109 1.536-1.195 3.072-2.389 4.693-3.499 2.389-1.621 4.949-3.157 7.509-4.608 0 0 0.085 0 0.085-0.085v0c6.656-3.84 13.739-7.253 21.504-10.155 0.427-0.171 0.853-0.256 1.28-0.427v0c0 0 0 0 0.085 0 6.144-2.219 12.203-3.925 18.176-5.12 0.085 0 0.171 0 0.171-0.085v0c6.4-1.28 12.715-2.048 19.029-2.219v0 0c2.389-0.085 4.779 0 7.253 0.085 0.341 0 0.683 0 1.024 0 8.107 0.427 16.043 1.707 23.808 4.011v0c2.816 0.853 5.717 1.792 8.448 2.901 0 0 0 0 0 0 24.832 9.899 42.581 29.099 53.163 57.685 10.411 28.075 9.557 53.675-2.645 76.885-12.117 23.296-32.512 40.192-61.184 50.859z" />
<glyph unicode="&#xe92b;" d="M798.549 723.285c-40.021 72.448-104.619 125.184-193.707 158.208-16.213 5.973-32.341 11.008-48.299 15.104v0c0 0 0 0 0 0-23.979 6.144-47.616 10.155-70.997 12.032-0.939 0.085-1.877 0.171-2.816 0.256 0 0 0 0 0 0v0c-6.144 0.427-12.288 0.768-18.347 0.853l-0.085 0.085c-1.792 0.085-3.499 0-5.291 0-2.475 0-4.949 0.085-7.424 0-1.109 0-2.219 0-3.328 0v0l0.085-0.085c-4.864-0.085-9.643-0.171-14.421-0.427-17.92-1.024-34.987-3.413-51.371-6.912-2.987-0.683-6.059-1.28-9.045-1.963-3.157-0.768-6.229-1.621-9.301-2.56-3.072-0.853-6.144-1.707-9.131-2.645-2.901-0.939-5.717-1.877-8.619-2.901-3.157-1.109-6.229-2.219-9.301-3.499-2.645-1.024-5.291-2.133-7.851-3.243-3.243-1.365-6.4-2.901-9.557-4.437-2.304-1.109-4.693-2.219-6.912-3.413-3.499-1.792-6.997-3.755-10.411-5.803-1.792-1.024-3.669-2.048-5.461-3.157-5.205-3.157-10.325-6.485-15.275-10.069-3.584-2.56-6.997-5.291-10.325-8.021v0c-13.141-10.752-25.003-22.955-35.328-36.352v0 0c-0.853-1.195-1.877-2.219-2.731-3.413-6.4-8.619-12.117-17.749-17.237-27.221v0c0 0 0 0 0 0-0.768-1.451-1.536-2.987-2.304-4.437-2.133-4.096-4.096-8.192-5.973-12.373-2.304-5.291-4.437-10.667-6.4-16.213-5.803-16.555-9.728-33.109-11.691-49.749-0.683-5.547-1.109-11.093-1.365-16.64 0-0.085 0-0.171 0-0.171-0.171-4.437-0.256-8.789-0.256-13.056 0-18.603 1.621-36.011 5.205-52.224 2.731-12.203 6.741-24.576 11.861-37.12 0.768-1.877 1.451-3.669 2.304-5.547 0.853-1.963 1.707-3.84 2.56-5.803 1.963-4.352 4.011-8.619 6.315-13.056 3.072-5.973 6.229-11.605 9.387-17.152 0 0 0 0 0 0v0c5.205-9.216 10.581-17.92 16.043-26.112 2.901-4.352 5.888-8.533 8.875-12.629 8.96-12.203 19.456-24.917 31.573-38.144 0.768-0.853 1.536-1.621 2.304-2.475 3.328-3.584 6.741-7.253 10.325-10.923 8.789-9.045 17.067-17.408 24.917-25.088 7.851-7.595 15.189-14.507 22.016-20.736 3.669-3.328 7.595-6.741 11.605-10.24 0.085-0.085 0.085-0.085 0.171-0.171 7.168-6.315 14.933-12.885 23.211-19.797 4.352-3.584 8.789-7.339 13.397-11.093l-19.371-52.139c-3.84-10.325-3.84-21.077-0.853-30.891v0c3.499-11.435 11.264-21.419 22.101-27.648v0 0c2.304-1.28 4.608-2.475 7.168-3.413l90.112-33.451c2.048-0.768 4.181-1.365 6.229-1.792 0.512-0.085 1.024-0.256 1.621-0.341 2.048-0.427 4.096-0.683 6.144-0.768 0.085 0 0.085 0 0.171 0 2.133-0.085 4.181-0.085 6.315 0.085 0.512 0 0.939 0.085 1.451 0.171 2.048 0.256 4.096 0.512 6.059 1.024 0 0 0.085 0 0.085 0 2.048 0.512 4.011 1.195 5.973 1.877 0.341 0.171 0.768 0.341 1.109 0.427 3.925 1.621 7.595 3.755 10.923 6.315 0.256 0.256 0.597 0.427 0.853 0.683 1.621 1.365 3.243 2.731 4.693 4.267v0 0c4.437 4.608 7.936 10.24 10.325 16.555l50.688 137.984c-114.347 112.981-160 200.533-136.96 262.656 2.048 5.547 4.864 11.264 8.448 17.237s8.448 12.544 14.421 19.797c6.059 7.253 13.653 12.203 22.955 14.848s19.115 2.048 29.525-1.792c0.597-0.256 1.195-0.512 1.792-0.768 10.837-4.267 19.627-10.069 26.368-17.323 0 0 0 0 0 0 1.28-1.451 2.56-2.987 3.755-4.523 0-0.085 0.085-0.085 0.085-0.171 1.109-1.536 2.133-3.072 3.157-4.779 0.085-0.085 0.085-0.256 0.171-0.341 0.939-1.621 1.792-3.243 2.56-4.949 0.085-0.171 0.171-0.427 0.256-0.597 0.768-1.621 1.451-3.328 1.963-5.035 0.085-0.256 0.171-0.597 0.256-0.853 0.512-1.621 1.024-3.328 1.451-5.12 0.085-0.427 0.171-0.853 0.256-1.28 0.341-1.621 0.683-3.328 0.939-5.035 0.085-0.597 0.085-1.195 0.171-1.792 0.171-1.621 0.427-3.243 0.512-4.949 0.085-0.768 0.085-1.621 0.085-2.475 0.085-1.536 0.171-3.072 0.171-4.608 0-1.109-0.085-2.219-0.085-3.328-0.085-1.365-0.085-2.731-0.171-4.181s-0.256-2.987-0.427-4.523c-0.085-1.109-0.171-2.219-0.341-3.328-0.341-2.645-0.768-5.461-1.28-8.192-0.256-1.536-0.427-3.157-0.427-4.693 0-3.925 0.939-7.68 2.475-11.179 2.816-6.059 7.765-11.008 14.421-13.483 7.339-2.731 16.213-5.973 26.197-9.728 3.328-1.195 6.741-2.475 10.24-3.84 7.083-2.645 14.507-5.376 22.272-8.277 38.571-14.336 83.541-30.976 116.821-43.349 2.048-0.768 4.181-1.28 6.229-1.792 0.597-0.171 1.195-0.256 1.792-0.341 1.621-0.256 3.157-0.427 4.779-0.597 0.512 0 1.024-0.085 1.621-0.085 2.048-0.085 4.181 0 6.144 0.256 0.171 0 0.256 0.085 0.427 0.085 1.877 0.256 3.755 0.597 5.632 1.109 0.427 0.085 0.853 0.256 1.365 0.341 1.707 0.512 3.413 1.109 5.035 1.792 0.256 0.085 0.512 0.171 0.683 0.256 1.963 0.853 3.84 1.877 5.632 2.987 0.085 0 0.085 0.085 0.171 0.085 1.707 1.109 3.328 2.304 4.864 3.584 0.256 0.171 0.512 0.427 0.683 0.597 7.851 6.912 13.483 16.555 14.848 27.989 7.339 61.184-4.437 119.381-35.328 175.275z" />
<glyph unicode="&#xe92c;" d="M51.2 637.44c47.104 25.6 61.44 61.44 45.056 111.616 33.792-17.408 62.464-28.672 90.112-45.056 7.168-4.096 8.192-17.408 14.336-24.576 7.168-9.216 13.312-20.48 22.528-24.576 101.376-41.984 202.752-81.92 305.152-122.88 5.12-2.048 11.264-3.072 18.432-5.12 1.024 11.264 2.048 20.48 3.072 31.744 26.624-29.696 52.224-60.416 76.8-87.040-31.744 0-70.656 0-110.592 0 5.12 6.144 11.264 14.336 19.456 23.552-8.192 4.096-15.36 7.168-20.48 10.24-101.376 38.912-200.704 75.776-300.032 114.688-16.384 6.144-28.672 5.12-44.032-3.072-11.264-5.12-25.6-6.144-36.864-4.096-26.624 6.144-51.2 15.36-82.944 24.576z" />
<glyph unicode="&#xe92d;" glyph-name="hint" d="M512-12.8c-254.085 0-460.8 206.715-460.8 460.8s206.715 460.8 460.8 460.8c254.085 0 460.8-206.715 460.8-460.8s-206.715-460.8-460.8-460.8zM512 825.016c-207.892 0-377.016-169.134-377.016-377.016 0-207.892 169.124-377.016 377.016-377.016 207.882 0 377.016 169.124 377.016 377.016 0 207.882-169.124 377.016-377.016 377.016zM511.99 601.6c-30.792 0-55.839 25.047-55.839 55.828 0 30.812 25.047 55.88 55.839 55.88s55.849-25.068 55.849-55.88c0-30.781-25.057-55.828-55.849-55.828zM512 517.816c23.132 0 41.892-18.749 41.892-41.892v-251.341c0-23.132-18.76-41.892-41.892-41.892s-41.892 18.76-41.892 41.892v251.341c0 23.142 18.76 41.892 41.892 41.892z" />
<glyph unicode="&#xe92e;" glyph-name="logout" d="M630.2 109.742c-114.074 0-220.365 55.747-284.303 149.105-12.964 18.924-7.916 44.626 11.264 57.416 19.19 12.78 45.24 7.813 58.204-11.11 48.333-70.574 128.645-112.701 214.835-112.701 142.848 0 259.062 114.637 259.062 255.549s-116.214 255.549-259.062 255.56c-86.446 0-166.892-42.322-215.183-113.213-12.913-18.954-38.963-23.992-58.173-11.254s-24.32 38.431-11.407 57.385c63.887 93.788 170.353 149.78 284.764 149.78 189.071 0 342.897-151.736 342.897-338.258 0-186.511-153.825-338.258-342.897-338.258zM194.017 489.349h485.652c23.142 0 41.912-18.514 41.912-41.349s-18.77-41.349-41.912-41.349h-485.652l54.19-53.463c16.374-16.148 16.374-42.332 0-58.481-8.182-8.079-18.913-12.114-29.635-12.114-10.732 0-21.453 4.035-29.645 12.114l-125.747 124.047c-0.963 0.952-1.884 1.956-2.755 3.011-0.215 0.246-0.399 0.522-0.604 0.778-0.635 0.809-1.27 1.618-1.843 2.468-0.164 0.236-0.297 0.492-0.461 0.737-0.573 0.901-1.147 1.802-1.659 2.744-0.092 0.174-0.174 0.369-0.266 0.543-0.532 1.014-1.044 2.048-1.495 3.113-0.051 0.123-0.092 0.256-0.133 0.369-0.461 1.126-0.891 2.273-1.249 3.441-0.041 0.133-0.061 0.276-0.102 0.41-0.348 1.147-0.655 2.304-0.891 3.492-0.072 0.348-0.102 0.696-0.164 1.034-0.174 0.983-0.348 1.966-0.451 2.98-0.143 1.362-0.205 2.744-0.205 4.127s0.061 2.765 0.205 4.127c0.102 0.993 0.276 1.976 0.451 2.949 0.061 0.348 0.092 0.717 0.164 1.065 0.236 1.178 0.543 2.324 0.881 3.461 0.041 0.154 0.072 0.297 0.123 0.451 0.348 1.157 0.778 2.284 1.229 3.4 0.051 0.133 0.092 0.266 0.154 0.399 0.44 1.055 0.952 2.089 1.475 3.092 0.102 0.184 0.184 0.389 0.276 0.573 0.512 0.932 1.075 1.823 1.649 2.714 0.164 0.246 0.307 0.512 0.471 0.758 0.573 0.85 1.208 1.659 1.843 2.458 0.205 0.266 0.389 0.543 0.604 0.799 0.87 1.044 1.792 2.048 2.755 3l125.757 124.047c16.364 16.148 42.916 16.148 59.279 0s16.364-42.332 0-58.481l-54.2-53.463z" />
<glyph unicode="&#xe92f;" glyph-name="music" d="M936.499 904.315c-3.645 3.164-8.458 4.598-13.312 4.024l-523.028-67.154c-8.407-1.085-14.705-8.172-14.705-16.589v-596.275c-30.802 36.762-79.749 60.662-134.973 60.662-93.030 0-168.714-67.584-168.714-150.682s75.684-150.692 168.714-150.692c93.030 0 168.724 67.594 168.724 150.692 0 3.881-0.317 7.7-0.666 11.5 0.225 1.085 0.666 2.079 0.666 3.215v485.601l489.277 62.833v-305.674c-30.802 36.731-79.749 60.641-134.963 60.641-93.041 0-168.724-67.594-168.724-150.682 0-83.098 75.684-150.692 168.724-150.692 92.18 0 167.24 66.406 168.591 148.46 0 0.215 0.123 0.399 0.123 0.614v587.612c0 4.823-2.089 9.421-5.734 12.585z" />
<glyph unicode="&#xe930;" glyph-name="relationship" d="M276.193 825.661c71.598 1.341 121.446-12.841 162.57-41.134 8.335-5.745 15.626-13.742 23.613-19.681 18.493-13.752 37.437-34.355 48.138-55.45 1.587 0.563 0.881 0.174 1.812 0.891 4.372 4.209 6.41 10.179 9.994 15.206 4.352 6.113 9.851 11.786 14.531 17.889 4.844 4.475 9.687 8.94 14.531 13.414 32.543 32.051 72.172 52.152 124.426 65.29 34.652 8.714 85.852 3.697 114.432-5.366 85.944-27.259 137.636-74.691 168.028-156.508 6.892-18.575 18.514-61.184 12.718-87.654-2.304-10.455 0.625-18.964-1.823-28.621-7.711-30.495-15.473-57.139-29.061-81.377-19.231-34.314-49.367-60.703-78.111-85.862-26.819-23.48-51.19-49.766-78.1-73.339-27.32-23.921-50.616-53.32-79.923-75.121-6.922-5.151-11.919-12.564-19.077-17.889-3.328-3.584-6.656-7.158-9.994-10.732-9.37-9.236-19.343-18.934-29.962-26.829-7.148-5.325-12.37-13.804-19.077-19.681-21.555-18.883-43.151-38.093-63.58-58.132-11.018-10.813-26.337-30.556-42.68-34.877-29.276-7.741-49.408 28.795-63.58 39.352-10.281 7.66-19.978 16.998-29.061 25.938-3.328 3.574-6.656 7.148-9.994 10.732-21.555 16.056-39.731 36.864-59.935 54.548-7.301 6.4-12.933 13.752-20.89 19.681-13.302 9.892-23.931 26.757-37.243 36.669-36.352 27.064-63.539 65.055-99.901 92.119-5.755 5.96-11.5 11.919-17.254 17.889-10.619 7.895-20.593 17.592-29.972 26.829-3.328 3.574-6.666 7.148-9.994 10.732-28.979 21.555-54.671 54.743-69.929 89.436-8.12 18.463-12.831 38.595-18.166 59.914-4.291 17.152-3.86 53.258 0 69.765 2.243 9.595 0.973 17.121 3.635 25.938 9.411 31.222 21.176 59.382 38.144 83.169 28.344 39.752 68.188 68.086 116.255 88.545 11.93 5.079 26.45 7.547 39.045 10.732 7.619 1.925 19.313-0.297 25.436 3.574z" />
<glyph unicode="&#xe931;" glyph-name="replay" d="M92.457 405.053c0 12.022 9.83 21.524 21.914 21.524h111.8c12.083 0 21.914-9.503 21.914-21.524 0-145.787 120.75-264.479 269.046-264.479s269.046 118.692 269.046 264.479c0 145.94-120.699 264.53-269.046 264.53-15.688 0-31.406-1.26-46.909-4.035v-74.772c0-8.786-5.345-16.681-13.445-19.937-8.335-3.318-17.674-1.413-24.054 4.7l-223.099 148.634c-8.479 8.376-8.479 21.873 0 30.28l223.14 148.357c6.298 6.185 15.626 8.008 23.972 4.741 8.1-3.369 13.435-11.172 13.435-19.907v-67.502c15.708 1.731 31.406 2.591 46.92 2.591 234.097 0 424.694-187.382 424.694-417.638 0-230.205-190.597-417.587-424.694-417.587-234.086 0-424.632 187.382-424.632 417.546z" />
<glyph unicode="&#xe932;" glyph-name="school" d="M957.102 565.924l-407.818-252.17c-20.572-12.718-54.231-12.718-74.793 0l-407.808 252.17c-20.572 12.718-20.572 33.526 0 46.244l407.808 205.609c20.562 12.718 54.221 12.718 74.793 0l407.818-205.609c20.562-12.718 20.562-33.526 0-46.244zM185.057 434.248l267.704-165.53c16.394-10.138 37.396-15.718 59.126-15.718s42.732 5.581 59.126 15.718l274.678 169.841c0 0 17.183 13.271 17.183-13.885 0-40.735 0-162.97 0-162.97 0-1.536 0-9.247 0-11.643 0-87.071-157.153-180.941-350.996-180.941s-350.986 93.87-350.986 180.941c0 2.396 0 10.107 0 11.643 0 0 0 115.241 0 153.651 0 33.833 24.166 18.893 24.166 18.893zM896.461 185.989c1.454 0.86 4.516 2.58 4.516 6.164 0 63.222 0 252.887 0 252.887s-1.403 12.216 4.813 17.654c5.376 4.721 20.644 13.292 26.87 16.794 7.762 4.352 7.567-8.837 7.567-8.837s0-208.876 0-278.497c0-3.584 2.949-5.243 4.362-6.072 14.193-8.335 23.736-23.808 23.736-41.554 0-26.573-21.361-48.118-47.718-48.118s-47.729 21.545-47.729 48.118c0 17.684 9.482 33.106 23.583 41.462z" />
<glyph unicode="&#xe933;" glyph-name="store" d="M267.295 737.352c174.868 0 349.798 0 524.667 0 33.536 0 67.072 0 100.608 0 17.521 0 36.178 1.075 47.954-4.864 2.017-1.024 3.666 0.092 5.642-0.973 11.356-6.134 19.661-14.285 25.385-26.307 1.331-2.796-0.266-7.793 0.942-10.721 1.731-4.198-1.761-26.214-3.758-30.198-3.185-6.339-5.427-14.981-8.468-21.432 0-0.973 0-1.946 0-2.918-0.307 0-0.625 0-0.932 0 0-0.983 0-1.956 0-2.929-0.317 0-0.635 0-0.942 0 0-0.973 0-1.946 0-2.918-2.386-4.987-4.198-11.479-6.584-16.568-0.993-2.099 0.061-3.748-0.942-5.837-8.079-16.906-11.489-37.888-19.743-54.559-1.024-2.068 0.051-3.768-0.942-5.847-1.997-4.168-3.666-9.462-5.642-13.64 0-0.973 0-1.946 0-2.918-3.215-6.4-5.376-14.879-8.458-21.432 0-0.973 0-1.946 0-2.929-0.317 0-0.635 0-0.942 0 0-0.973 0-1.946 0-2.918-0.317 0-0.625 0-0.942 0 0-0.973 0-1.946 0-2.918-5.796-12.124-8.315-27.628-14.1-39.946 0-0.973 0-1.946 0-2.918-0.317 0-0.635 0-0.942 0 0-0.983 0-1.956 0-2.929-0.317 0-0.625 0-0.942 0 0-0.973 0-1.946 0-2.918-0.317 0-0.625 0-0.942 0 0-0.973 0-1.956 0-2.929-9.994-19.907-16.261-36.393-33.843-48.712-1.178-0.819-4.352-1.157-5.642-1.946-14.275-8.694-30.525-7.793-53.125-7.793-30.556 0-61.123 0-91.679 0-126.607 0-253.256 0-379.863 0-0.061-6.564 1.751-17.644 3.758-22.405 0-1.946 0-3.901 0-5.847 0.317 0 0.625 0 0.942 0 0-1.946 0-3.891 0-5.847 0.307 0 0.625 0 0.942 0 0-1.946 0-3.891 0-5.847 0.307 0 0.625 0 0.932 0 0-1.946 0-3.891 0-5.837 0.317 0 0.635 0 0.942 0 0-1.628 0-3.256 0-4.874 0.317 0 0.625 0 0.942 0 0-1.946 0-3.901 0-5.847 0.317 0 0.625 0 0.942 0 0-1.946 0-3.891 0-5.847 0.307 0 0.625 0 0.942 0 0-1.946 0-3.891 0-5.837 0.307 0 0.625 0 0.932 0 0-1.956 0-3.901 0-5.847 1.28-2.99 1.833-6.205 1.884-10.721 3.758-1.382 10.312-0.973 15.514-0.973 9.871 0 19.753 0 29.624 0 33.372 0 66.755 0 100.137 0 112.343 0 224.727 0 337.080 0 1.372-1.997 7.014-0.788 9.4-1.946 2.847-1.382 5.919-3.287 8.468-4.874 0.625 0 1.249 0 1.874 0 0.317-0.215 0.635-1.72 0.942-1.946 0.625 0 1.26 0 1.884 0 1.106-0.819 1.905-2.816 2.816-3.901 0.317 0 0.635 0 0.942 0 0-0.645 0-1.3 0-1.946 0.225-0.328 1.659-0.645 1.884-0.973 0-0.655 0-1.3 0-1.946 0.205-0.328 1.669-0.655 1.874-0.983 1.014-1.556 0.092-3.011 0.942-4.864 0.317 0 0.625 0 0.942 0 1.403-3.113-0.461-6.39 0.942-9.748 3.512-8.387-2.427-31.13-5.642-36.045-0.317 0-0.625 0-0.942 0-0.696-0.891-0.236-1.864-0.942-2.918-0.215-0.328-1.659-0.645-1.874-0.973 0-0.655 0-1.3 0-1.956-0.788-1.137-2.714-1.966-3.768-2.918 0-0.328 0-0.645 0-0.973-11.018-8.1-28.477-7.793-47.483-7.793-27.259 0-54.538 0-81.797 0-97.618 0-195.277 0-292.895 0-26.952 0-53.914 0-80.865 0-12.206 0-26.317-1.075-34.785 2.918-1.26 0-2.509 0-3.758 0-22.692 11.561-30.904 26.757-42.312 49.684-1.034 2.058 0.041 3.758-0.942 5.847-2.693 5.683-3.973 13.527-6.584 19.487 0 1.3 0 2.591 0 3.891-0.317 0-0.625 0-0.942 0 0 1.3 0 2.601 0 3.901-0.307 0-0.625 0-0.942 0 0 1.618 0 3.246 0 4.864-0.307 0-0.625 0-0.932 0-1.413 3.297 0.471 6.461-0.942 9.748-3.717 8.591-2.908 21.586-6.584 30.198-1.403 3.297 0.481 6.461-0.942 9.748-0.307 0-0.625 0-0.942 0 0 1.618 0 3.246 0 4.864-0.307 0-0.625 0-0.932 0 0 1.628 0 3.246 0 4.874-3.625 8.376-3.021 20.808-6.584 29.225 0 1.946 0 3.891 0 5.847-0.317 0-0.635 0-0.942 0 0 1.618 0 3.246 0 4.864-0.317 0-0.625 0-0.942 0 0 1.628 0 3.256 0 4.874-0.307 0-0.625 0-0.942 0 0 1.956 0 3.901 0 5.847-0.307 0-0.625 0-0.932 0 0 1.628 0 3.246 0 4.874-0.317 0-0.635 0-0.942 0 0 1.618 0 3.246 0 4.864-1.843 4.25-1.946 11.336-3.768 15.596 0 1.618 0 3.246 0 4.864-2.509 5.827-2.243 14.664-4.7 20.46 0 1.946 0 3.901 0 5.847-3.113 7.24-2.57 18.074-5.642 25.334 0 1.946 0 3.891 0 5.837-0.307 0-0.625 0-0.942 0 0 1.628 0 3.256 0 4.874-0.307 0-0.625 0-0.932 0 0 1.628 0 3.246 0 4.874-0.317 0-0.635 0-0.942 0 0 1.946 0 3.891 0 5.837-0.317 0-0.625 0-0.942 0 0 1.628 0 3.256 0 4.874-0.307 0-0.625 0-0.942 0 0 1.628 0 3.246 0 4.874-0.307 0-0.625 0-0.942 0 0 1.946 0 3.891 0 5.847-3.697 8.602-2.908 21.586-6.574 30.198-1.413 3.287 0.481 6.461-0.942 9.738-0.317 0-0.625 0-0.942 0 0 1.628 0 3.246 0 4.874-0.317 0-0.625 0-0.942 0 0 1.628 0 3.246 0 4.874-0.307 0-0.625 0-0.942 0 0 1.618 0 3.246 0 4.864-0.307 0-0.625 0-0.942 0 0 1.956 0 3.901 0 5.847-4.127 9.615-3.42 24.433-7.516 34.099 0 1.946 0 3.901 0 5.847-0.317 0-0.625 0-0.942 0 0 1.618 0 3.246 0 4.874-0.317 0-0.625 0-0.942 0 0 1.618 0 3.246 0 4.864-0.307 0-0.625 0-0.942 0 0 1.628 0 3.246 0 4.874-0.307 0-0.625 0-0.942 0 0 1.618 0 3.246 0 4.874-3.717 8.591-2.877 21.545-6.574 30.198-1.403 3.287 0.481 6.461-0.942 9.738-3.052 7.035-2.652 17.295-5.642 24.361 0 1.946 0 3.891 0 5.847-0.307 0-0.625 0-0.942 0 0 1.618 0 3.246 0 4.864-0.307 0-0.625 0-0.932 0 0 1.628 0 3.246 0 4.874-0.317 0-0.635 0-0.942 0 0 1.618 0 3.246 0 4.864-1.864 4.301-3.666 13.67-3.768 19.487-6.246 2.294-17.49 0.973-25.385 0.973-17.551 0-35.103 0-52.654 0-1.014 1.495-7.516 1.782-9.4 2.929 0 0.317 0 0.645 0 0.973-0.625 0-1.26 0-1.884 0 0 0.328 0 0.645 0 0.973-0.625 0-1.249 0-1.874 0 0 0.328 0 0.655 0 0.973-0.635 0-1.26 0-1.884 0-0.727 0.522-1.157 2.396-1.884 2.929-0.625 0-1.249 0-1.884 0-2.15 1.587-3.748 4.844-5.632 6.82-0.696 0.717-2.273 1.147-2.826 1.946-4.639 6.748-7.731 14.49-11.284 22.405 0 1.3 0 2.601 0 3.891-0.307 0-0.625 0-0.942 0 0 1.628 0 3.256 0 4.874-0.307 0-0.625 0-0.932 0 0 2.273 0 4.547 0 6.82-0.317 0-0.635 0-0.942 0 0 3.082 0 6.175 0 9.257 0 12.524 0.819 17.449 5.642 24.842 0.809 1.249 0.113 2.662 0.942 3.901 0.778 1.157 2.775 1.894 3.758 2.918 1.587 1.649 2.888 4.516 4.7 5.847 0.625 0 1.249 0 1.884 0 0.307 0.215 0.625 1.731 0.942 1.946 0.625 0 1.249 0 1.874 0 1.659 1.034 3.942 2.99 5.642 3.901 1.997 1.065 3.604-0.031 5.642 0.973 0 0.317 0 0.645 0 0.973 1.567 0 3.133 0 4.7 0 4.475 2.038 13.65 0.973 19.743 0.973 18.964 0 37.929 0 56.893 0 15.77 0 41.216 2.54 52.183-2.918 0.942 0 1.874 0 2.816 0 1.7-0.922 3.983-2.888 5.642-3.901 1.311-0.799 2.519-0.102 3.758-0.973 0.317-0.215 0.635-1.731 0.942-1.946 0.625 0 1.26 0 1.884 0 0.317-0.236 0.625-1.72 0.942-1.956 0.625 0 1.249 0 1.884 0 1.812-1.331 3.103-4.188 4.69-5.837 0.696-0.717 2.284-1.157 2.826-1.956 0-0.645 0-1.3 0-1.946 0.225-0.328 1.659-0.645 1.884-0.973 0.696-1.055 0.236-2.028 0.942-2.929 0.307 0 0.625 0 0.932 0 0-0.645 0-1.29 0-1.946 1.004-1.71 2.877-4.076 3.758-5.847 0.911-1.812 0.082-3.226 0.942-4.864 0.317 0 0.635 0 0.942 0 0-1.3 0-2.601 0-3.901 0.317 0 0.625 0 0.942 0 1.065-2.314-0.164-4.362 0.942-6.82 0.317 0 0.625 0 0.942 0 0-0.973 0-1.946 0-2.918 0.307 0 0.625 0 0.942 0 0-1.3 0-2.601 0-3.901 0.307 0 0.625 0 0.932 0 0-1.3 0-2.591 0-3.891 0.317 0 0.635 0 0.942 0 0-1.956 0-3.901 0-5.847 0.317 0 0.625 0 0.942 0 0-2.273 0-4.547 0-6.82 2.365-5.591 1.403-14.858 3.758-20.46 0-2.601 0-5.192 0-7.793 0.317 0 0.635 0 0.942 0 0-2.273 0-4.547 0-6.82 0.317 0 0.625 0 0.942 0 0-1.946 0-3.901 0-5.847 0.317 0 0.625 0 0.942 0 0-1.946 0-3.891 0-5.847 0.307 0 0.625 0 0.942 0 0-2.273 0-4.547 0-6.82 1.27-2.98 2.621-10.783 2.816-14.612zM352.86 197.642c39.332 0.42 62.904-14.336 78.981-37.99 0.512-0.748 2.324-1.198 2.816-1.946 0.829-1.239 0.133-2.642 0.942-3.901 0.205-0.317 1.679-0.655 1.884-0.973 0-0.645 0-1.3 0-1.946 0.317 0 0.625 0 0.942 0 0-0.655 0-1.3 0-1.946 0.307 0 0.625 0 0.942 0 0-0.983 0-1.956 0-2.929 0.307 0 0.625 0 0.932 0 0-0.645 0-1.3 0-1.946 0.317 0 0.635 0 0.942 0 0-0.655 0-1.3 0-1.946 0.317 0 0.625 0 0.942 0 0-0.983 0-1.956 0-2.929 8.049-17.142 7.096-46.162-0.942-62.351 0-0.973 0-1.946 0-2.918-10.967-21.842-24.054-35.461-45.128-46.766-0.942 0-1.884 0-2.826 0 0-0.317 0-0.645 0-0.973-0.625 0-1.249 0-1.874 0 0-0.317 0-0.645 0-0.973-0.942 0-1.884 0-2.826 0 0-0.328 0-0.645 0-0.973-0.942 0-1.874 0-2.816 0 0-0.328 0-0.655 0-0.973-0.942 0-1.884 0-2.826 0 0-0.328 0-0.655 0-0.973-1.567 0-3.133 0-4.7 0 0-0.328 0-0.655 0-0.973-1.567 0-3.133 0-4.7 0 0-0.328 0-0.655 0-0.973-4.547 0-9.093 0-13.629 0-15.084-0.010-25.989 2.13-35.267 7.782-0.625 0-1.249 0-1.874 0-1.7 1.044-3.953 2.847-5.642 3.901-0.635 0-1.26 0-1.884 0-0.307 0.215-0.635 1.741-0.942 1.946-1.208 0.85-2.56 0.123-3.758 0.973-0.727 0.522-1.157 2.396-1.884 2.929-0.625 0-1.249 0-1.874 0-0.737 0.532-1.157 2.386-1.884 2.918-0.625 0-1.249 0-1.884 0-1.464 1.085-2.458 3.533-3.758 4.874-2.314 2.396-6.646 5.151-8.458 7.793 0 0.655 0 1.3 0 1.946-0.522 0.758-2.314 1.198-2.826 1.956 0 0.645 0 1.29 0 1.946-0.215 0.328-1.659 0.645-1.884 0.973 0 0.655 0 1.3 0 1.946-0.205 0.328-1.669 0.655-1.874 0.973-0.84 1.3-0.174 2.55-0.942 3.901-0.973 1.72-2.877 4.086-3.758 5.847-0.911 1.812-0.061 3.226-0.942 4.874-0.317 0-0.625 0-0.942 0-1.024 2.058 0.041 3.748-0.942 5.837-2.703 5.786-6.431 29.43-2.816 38.001 0 1.946 0 3.891 0 5.837 1.669 3.912 2.949 8.96 4.7 12.667 0 0.973 0 1.956 0 2.929 1.526 3.062 3.942 6.758 5.642 9.738 0.768 1.352 0.102 2.611 0.942 3.901 0.205 0.317 1.659 0.645 1.874 0.973 0 0.645 0 1.3 0 1.946 0.512 0.758 2.314 1.198 2.826 1.946 0 0.655 0 1.3 0 1.956 0.307 0 0.625 0 0.942 0 1.065 1.26 1.751 2.621 2.816 3.891 0.317 0 0.625 0 0.942 0 0 0.645 0 1.3 0 1.946 0.778 1.147 2.714 1.976 3.758 2.929 0 0.317 0 0.645 0 0.973 7.444 5.489 14.49 10.66 22.569 15.585 0.625 0 1.249 0 1.884 0 2.683 1.638 6.482 3.471 9.4 4.874 1.249 0 2.509 0 3.758 0 0 0.328 0 0.645 0 0.973 1.26 0 2.509 0 3.758 0 0 0.328 0 0.645 0 0.973 1.567 0 3.133 0 4.7 0 0 0.328 0 0.645 0 0.973 2.785 1.26 6.871-1.413 8.468 0.973zM811.704 43.725c-0.625 0-1.249 0-1.874 0-2.273-5.366-8.673-7.526-13.169-10.721-0.307-0.215-0.625-1.731-0.942-1.946-1.239-0.87-2.447-0.174-3.758-0.973-2.877-1.761-6.441-4.27-9.4-5.847-1.976-1.055-3.656 0.072-5.642-0.973 0-0.328 0-0.655 0-0.973-0.625 0-1.249 0-1.884 0 0-0.328 0-0.655 0-0.973-1.249 0-2.509 0-3.758 0 0-0.328 0-0.655 0-0.973-1.26 0-2.509 0-3.758 0 0-0.328 0-0.655 0-0.983-1.884 0-3.768 0-5.642 0-3.256-1.454-13.271-2.191-15.985-0.973-3.768 0-7.526 0-11.284 0 0 0.328 0 0.655 0 0.973-1.567 0-3.133 0-4.7 0 0 0.328 0 0.655 0 0.983-1.26 0-2.509 0-3.758 0 0 0.317 0 0.645 0 0.973-1.26 0-2.509 0-3.768 0 0 0.317 0 0.645 0 0.973-0.625 0-1.249 0-1.874 0 0 0.317 0 0.645 0 0.973-1.987 1.044-3.676-0.082-5.642 0.973-1.7 0.911-3.983 2.888-5.642 3.891-1.311 0.799-2.519 0.113-3.768 0.983-0.307 0.215-0.625 1.731-0.942 1.946-1.208 0.85-2.54 0.123-3.758 0.973-6.113 4.291-10.844 10.26-15.985 15.585-1.29 1.341-3.656 2.376-4.7 3.901 0 0.645 0 1.3 0 1.946-0.512 0.758-2.304 1.198-2.816 1.946 0 0.655 0 1.3 0 1.956-0.225 0.328-1.659 0.645-1.884 0.973 0 0.645 0 1.3 0 1.946-0.215 0.317-1.669 0.655-1.884 0.973 0 0.655 0 1.3 0 1.946-0.307 0-0.625 0-0.932 0 0 0.655 0 1.3 0 1.956-0.317 0-0.635 0-0.942 0 0 0.645 0 1.3 0 1.946-0.184 0.276-1.72 0.696-1.884 0.973 0 0.973 0 1.946 0 2.929-0.307 0-0.625 0-0.942 0 0 0.645 0 1.29 0 1.946-0.307 0-0.625 0-0.932 0 0 0.645 0 1.3 0 1.946-0.317 0-0.635 0-0.942 0 0 0.973 0 1.946 0 2.929-0.317 0-0.635 0-0.942 0 0 0.973 0 1.946 0 2.918-0.317 0-0.625 0-0.942 0 0 0.973 0 1.946 0 2.918-0.317 0-0.625 0-0.942 0 0 1.3 0 2.601 0 3.901-0.307 0-0.625 0-0.942 0 0 1.628 0 3.246 0 4.864-0.307 0-0.625 0-0.932 0 0 2.929 0 5.847 0 8.776-0.317 0-0.635 0-0.942 0-1.249 2.959 0.287 10.127 0.942 11.694 0 2.263 0 4.536 0 6.81l0.932 6.82c0.317 0 0.635 0 0.942 0 0 1.3 0 2.601 0 3.901 2.57 5.724 4.516 12.36 7.526 17.531 0 0.655 0 1.3 0 1.956 0.205 0.317 1.669 0.655 1.874 0.973 0.819 1.26 0.123 2.642 0.942 3.891 0.215 0.328 1.669 0.655 1.884 0.973 0 0.655 0 1.3 0 1.956 0.512 0.758 2.304 1.188 2.816 1.946 0 0.645 0 1.3 0 1.946 0.287 0.42 1.516 0.584 1.884 0.973 1.72 1.833 3.082 3.922 4.7 5.847 0.317 0 0.625 0 0.942 0 0 0.655 0 1.3 0 1.956 0.317 0 0.625 0 0.942 0 0.645 0.758 1.106 2.355 1.874 2.918 0.635 0 1.26 0 1.884 0 0 0.328 0 0.645 0 0.973 1.219 1.106 2.54 1.823 3.758 2.929 0 0.317 0 0.645 0 0.973 0.635 0 1.26 0 1.884 0 0.727 0.522 1.157 2.396 1.884 2.918 1.198 0.86 2.55 0.133 3.758 0.973 0.307 0.215 0.635 1.741 0.942 1.946 0.625 0 1.249 0 1.874 0 1.659 1.034 3.942 2.99 5.642 3.901 1.761 0.942 3.123 0.061 4.7 0.973 0 0.328 0 0.655 0 0.973 0.942 0 1.884 0 2.826 0 0 0.328 0 0.655 0 0.973 0.942 0 1.884 0 2.816 0 0 0.328 0 0.655 0 0.983 1.26 0 2.509 0 3.768 0 0 0.317 0 0.645 0 0.973 1.249 0 2.509 0 3.758 0 0 0.317 0 0.645 0 0.973 1.567 0 3.133 0 4.7 0 0 0.328 0 0.645 0 0.973 2.826 0 5.642 0 8.458 0 6.451 2.888 25.17-0.614 30.095-2.918 2.396-1.126 4.352 0.154 6.584-0.983 0-0.317 0-0.645 0-0.973 0.932 0 1.874 0 2.816 0 3.901-2.079 8.55-4.567 12.227-6.82 1.3-0.799 2.519-0.102 3.758-0.973 0.317-0.215 0.625-1.72 0.942-1.946 0.625 0 1.249 0 1.874 0 0.737-0.532 1.157-2.386 1.884-2.918 0.625 0 1.26 0 1.884 0 0.799-0.594 2.017-3.308 2.816-3.901 0.625 0 1.26 0 1.884 0 0.399-0.297 0.563-1.567 0.942-1.946 1.3-1.331 3.656-2.386 4.7-3.901 0-0.645 0-1.3 0-1.946 1.29-1.884 4.352-2.99 5.642-4.874 0-0.645 0-1.3 0-1.946 0.215-0.328 1.659-0.645 1.874-0.973 0.707-1.065 0.236-2.028 0.942-2.929 0.317 0 0.625 0 0.942 0 0-0.645 0-1.29 0-1.946 0.215-0.317 1.669-0.655 1.884-0.973 0.84-1.29 0.164-2.54 0.942-3.901 0.973-1.71 2.877-4.076 3.758-5.837 0.901-1.823 0.061-3.236 0.942-4.874 0.307 0 0.625 0 0.932 0 0-0.973 0-1.946 0-2.929 0.317 0 0.635 0 0.942 0 1.096-2.314-0.133-4.321 0.942-6.82 0.317 0 0.625 0 0.942 0 1.331-3.103-0.369-8.55 0.942-11.684 0.307 0 0.625 0 0.942 0 1.178-2.806-0.287-14.991-0.942-16.568-1.403-3.338 0.512-9.359-0.942-12.657-0.317 0-0.625 0-0.942 0-1.055-2.324 0.164-4.362-0.942-6.82-0.307 0-0.625 0-0.942 0 0-0.973 0-1.946 0-2.929-0.307 0-0.625 0-0.932 0 0-0.645 0-1.3 0-1.946-0.317 0-0.635 0-0.942 0 0-0.973 0-1.946 0-2.918-0.891-1.772-2.765-4.137-3.758-5.847 0-0.655 0-1.3 0-1.946-0.215-0.317-1.679-0.666-1.884-0.983-0.819-1.249-0.123-2.632-0.942-3.891-0.215-0.328-1.669-0.655-1.884-0.973 0-0.655 0-1.3 0-1.946-2.181-3.205-9.759-8.858-10.342-12.667z" />
<glyph unicode="&#xe934;" d="M307.2 701.952c39.936-25.6 78.848-51.2 118.784-76.8-1.024-1.024-1.024-2.048-2.048-3.072-40.96 23.552-80.896 49.152-121.856 72.704 2.048 2.048 4.096 5.12 5.12 7.168z" />
<glyph unicode="&#xe935;" d="M240.64 523.776c53.248-7.168 106.496-14.336 159.744-20.48 0-1.024 0-1.024 0-2.048-54.272 5.12-106.496 10.24-160.768 15.36 0 1.024 1.024 4.096 1.024 7.168z" />
<glyph unicode="&#xe936;" d="M299.008 459.264c38.912 2.048 77.824 4.096 116.736 6.144 0-1.024 0-2.048 0-3.072-38.912-3.072-77.824-7.168-115.712-10.24 0 3.072 0 5.12-1.024 7.168z" />
<glyph unicode="&#xe937;" d="M454.656 651.776c-21.504 19.456-45.056 37.888-66.56 57.344 2.048 2.048 4.096 4.096 6.144 6.144 20.48-20.48 43.008-39.936 63.488-60.416-1.024-1.024-2.048-2.048-3.072-3.072z" />
<glyph unicode="&#xe938;" d="M705.536 588.288c-26.624 14.336-69.632-11.264-103.424-59.392l41.984-58.368-74.752-12.288c-14.336-47.104-9.216-87.040 15.36-100.352 31.744-17.408 84.992 20.48 117.76 83.968s34.816 130.048 3.072 146.432z" />
<glyph unicode="&#xe939;" d="M601.088 371.2l9.216 23.552c-14.336 3.072-28.672 12.288-34.816 19.456l13.312 20.48c8.192-8.192 19.456-16.384 35.84-18.432 17.408-3.072 30.72 4.096 32.768 18.432 2.048 10.24-3.072 18.432-17.408 28.672-19.456 14.336-31.744 28.672-27.648 48.128 4.096 23.552 26.624 40.96 57.344 38.912l9.216 22.528 20.48-3.072-8.192-22.528c13.312-3.072 23.552-9.216 28.672-14.336l-15.36-20.48c-6.144 4.096-15.36 11.264-30.72 14.336-16.384 3.072-26.624-5.12-28.672-16.384-2.048-9.216 4.096-16.384 20.48-28.672 18.432-14.336 27.648-28.672 24.576-48.128-5.12-29.696-30.72-44.032-60.416-43.008l-9.216-23.552-19.456 4.096z" />
<glyph unicode="&#xe93a;" d="M876.544 821.76c-100.352 47.104-244.736-40.96-345.088-201.728l15.36-16.384c79.872 124.928 192.512 192.512 272.384 155.648 92.16-44.032 104.448-214.016 25.6-379.904s-217.088-265.216-309.248-221.184c-72.704 34.816-95.232 148.48-63.488 276.48l-24.576-5.12c-45.056-163.84-17.408-311.296 75.776-355.328 114.688-54.272 287.744 68.608 385.024 275.456s82.944 417.792-31.744 472.064z" />
<glyph unicode="&#xe93b;" d="M780.288 705.024c-60.416 28.672-147.456-26.624-211.968-125.952l16.384-18.432c45.056 66.56 105.472 102.4 147.456 82.944 51.2-24.576 55.296-121.856 10.24-218.112-46.080-95.232-124.928-153.6-176.128-130.048-38.912 18.432-51.2 79.872-33.792 150.528l-27.648-6.144c-29.696-107.52-15.36-201.728 41.984-229.376 71.68-33.792 181.248 49.152 245.76 186.368s58.368 275.456-12.288 308.224z" />
<glyph unicode="&#xe93c;" glyph-name="Untitled-1" d="M520.141-11.336c-36.844-0.492-42.516 19.784-60.211 37.499-20.685 20.705-41.605 42.476-65.147 60.191-9.431 7.096-17.193 17.562-26.644 24.668-27.812 20.941-53.033 44.268-80.937 65.126-9.472 7.086-17.224 17.562-26.655 24.668-59.443 44.851-121.969 114.606-152.986 187.484-32.43 76.196-22.364 183.736 18.749 242.749 29.327 42.086 68.895 68.536 121.405 87.818 17.193 6.318 37.233 5.417 56.259 9.861 12.196 2.857 33.126 0.328 42.445-1.976 9.841-2.427 16.722-1.219 25.661-3.942 21.985-6.717 42.465-16.609 60.211-27.628 9.083-5.642 17.664-10.291 25.661-16.773 1.628-1.321 6.502-4.864 6.912-3.942 0.328 0 0.655 0 0.983 0-16.241 45.199-28.334 91.126-47.38 132.229-2.181 4.7-1.69 8.284-3.953 12.831-9.216 18.524-17.705 37.847-27.638 56.248-5.427 10.045-15.032 19.21-18.749 30.587 0.328 0 0.655 0 0.983 0 0 0.328 0 0.655 0 0.983 16.722-5.427 34.58-2.714 53.299-6.912 14.264-3.195 33.157-1.577 48.364-4.936 7.895 0 15.79 0 23.685 0 9.185-1.372 25.395-2.038 34.55 0 14.141 0.328 28.293 0.655 42.445 0.983 19.302 4.219 42.22 3.338 60.211 7.895 4.096 1.034 20.91 2.468 21.709 1.976 1.7-3.799-5.724-10.353-7.895-13.814-8.284-13.199-15.514-27.75-22.702-41.441-17.295-32.963-28.6-68.004-42.445-104.602-7.834-20.705-20.347-49.644-23.685-73.021 0.655 0 1.321 0 1.976 0 7.363 10.568 28.355 20.122 40.468 26.644 35.594 19.159 86.815 38.441 143.114 24.668 12.052-2.949 21.76-1.997 32.573-5.919 66.867-24.269 117.75-64.020 143.114-129.27 4.772-12.268 5.868-22.948 9.871-36.506 7.813-26.44 11.131-67.318 3.953-96.707-0.655-6.574-1.321-13.158-1.976-19.732-13.67-48.476-31.498-87.542-57.252-123.341-6.953-9.677-16.589-18.186-23.685-27.628-10.557-14.039-22.508-27.904-36.516-38.482-4.28-4.608-8.55-9.206-12.831-13.814-9.216-9.216-19.108-17.736-29.614-25.661-7.373-5.56-13.322-14.152-20.726-19.732-18.616-14.039-35.553-29.389-54.282-43.418-11.694-8.765-21.862-20.828-33.556-29.604-31.314-23.491-60.385-50.504-87.849-77.957-11.418-11.418-20.787-25.528-32.573-36.516-5.683-5.294-14.858-6.584-20.716-11.837z" />
<glyph unicode="&#xe93d;" glyph-name="twitter" d="M972.8 728.146c-34.273-15.012-70.789-24.955-108.861-29.788 39.168 23.347 69.059 60.037 83.108 104.253-36.516-21.74-76.831-37.089-119.798-45.66-34.683 36.864-84.101 59.689-138.015 59.689-104.602 0-188.815-84.756-188.815-188.662 0-14.95 1.27-29.327 4.383-43.008-157.082 7.639-296.069 82.801-389.437 197.284-16.302-28.232-25.856-60.549-25.856-95.334 0-65.321 33.69-123.228 83.917-156.754-30.351 0.584-60.129 9.38-85.361 23.235 0-0.573 0-1.321 0-2.068 0-91.658 65.485-167.793 151.368-185.334-15.37-4.198-32.133-6.205-49.531-6.205-12.093 0-24.31 0.686-35.768 3.215 24.474-74.691 93.942-129.608 176.538-131.389-64.276-50.196-145.9-80.445-234.25-80.445-15.503 0-30.362 0.696-45.22 2.591 83.692-53.883 182.876-84.644 289.843-84.644 347.668 0 537.754 287.508 537.754 536.719 0 8.335-0.287 16.384-0.696 24.381 37.499 26.563 69.007 59.74 94.7 97.925z" />
<glyph unicode="&#xe93e;" glyph-name="work" d="M726.876 695.665c-40.919 0-81.859 0-122.788 0 0 20.234 0 40.468 0 60.692-61.389 0-122.788 0-184.177 0 0-20.224 0-40.458 0-60.692-40.929 0-81.869 0-122.798 0-0.195 24.279-3.656 65.352 1.925 85.35 13.957 50.053 45.189 81.172 95.928 94.843 13.097 3.523 30.392 1.894 46.049 1.894 28.129 0 56.279 0 84.408 0 44.472 0 96.379 3.881 127.59-9.482 36.413-15.606 60.713-46.531 71.946-87.255 5.612-20.337 1.966-60.764 1.915-85.35zM634.788 392.192c0.707 62.188-40.817 100.116-88.259 115.702-20.47 6.717-52.746 7.67-73.861 0-43.889-15.954-83.62-56.392-83.456-115.702-71.301 0-142.623 0-213.924 0-43.172 0-77.292-4.413-102.646 14.223-25.989 19.118-21.105 61-21.105 105.267 0 45.128-5.427 89.569 21.105 109.066 21.074 15.473 43.663 14.223 80.579 14.223 36.772 0 73.554 0 110.326 0 161.782 0 323.615 0 485.396 0 40.284 0 80.579 0 120.873 0 37.12 0 60.355 1.352 81.541-14.223 26.511-19.497 21.094-63.949 21.094-109.066 0.010-44.288 4.915-86.159-21.094-105.267-25.416-18.668-59.402-14.223-102.646-14.223-71.301 0-142.623 0-213.924 0zM503.368 452.884c37.806 0.512 58.962-16.261 68.106-43.622 3.768-11.264 1.925-28.58 1.925-42.68-0.010-58.532-4.506-84.265-52.767-95.785-16.404-3.912-32.092 4.188-40.294 9.492-28.047 18.135-29.737 36.076-29.737 81.551 0 15.575-1.976 34.765 1.925 47.421 4.987 16.2 17.49 30.771 31.652 37.929 5.734 2.908 13.978 2.171 19.19 5.693zM82.237 335.288c6.851-0.317 14.182-2.437 20.142-3.789 95.601 0 191.232 0 286.833 0-0.707-62.177 40.827-100.127 88.248-115.702 20.48-6.728 52.756-7.67 73.871 0 43.807 15.913 83.62 56.484 83.456 115.702 95.601 0 191.232 0 286.833 0 6.175 1.372 13.189 3.441 20.142 3.789 0-67.011 0-134.042 0-201.052 0-41.216 1.761-75.827-22.067-92.938-19.886-14.285-42.179-13.271-76.739-13.271-37.417 0-74.834 0-112.241 0-149.637 0-299.315 0-448.942 0-48.927 0-97.853 0-146.77 0-12.329 2.97-22.845 7.741-31.662 14.223-22.897 16.845-21.105 51.046-21.105 91.044 0 67.318 0 134.666 0 201.994z" />
<glyph unicode="&#xe93f;" glyph-name="yes-i-want-to-change" d="M517.12 94.495h-41.626l59.515-67.062c8.827-9.943 7.977-25.211-1.905-34.099-4.577-4.106-10.291-6.134-15.974-6.134-6.595 0-13.158 2.714-17.9 8.059l-85.074 95.857c-13.926 15.698-13.926 39.363 0 55.060l85.074 95.857c8.827 9.943 23.992 10.803 33.874 1.915 9.882-8.878 10.732-24.146 1.905-34.089l-59.515-67.062h41.626c196.577 0 356.495 160.983 356.495 358.851s-159.918 358.851-356.495 358.851c-196.577 0-356.506-160.973-356.506-358.851 0-13.332-10.742-24.146-23.982-24.146-13.251 0-23.992 10.813-23.992 24.146 0 224.502 181.453 407.153 404.48 407.153s404.48-182.651 404.48-407.153c0-224.502-181.453-407.153-404.48-407.153zM579.379 617.462l107.817-12.206c5.663-0.645 9.718-5.673 9.073-11.233l-29.286-249.682c-0.307-2.673-1.69-5.11-3.83-6.789-1.833-1.423-4.096-2.191-6.41-2.191-0.399 0-0.788 0.020-1.188 0.072l-120.863 13.681 104.028 40.929c15.841 6.226 23.572 23.962 17.224 39.526l-76.564 187.894zM364.882 598.006l163.42 64.297c2.54 1.004 5.376 0.963 7.895-0.092s4.495-3.052 5.519-5.55l95.078-233.339c2.12-5.192-0.451-11.090-5.745-13.169l-136.847-53.842c0 0-0.010 0-0.010 0l-0.174-0.072c-0.072-0.031-0.143-0.051-0.215-0.082l-26.173-10.301c-1.239-0.481-2.54-0.727-3.84-0.727-1.382 0-2.765 0.276-4.055 0.819-2.519 1.055-4.506 3.052-5.519 5.55l-95.078 233.339c-2.12 5.192 0.451 11.090 5.745 13.169zM443.034 499.702c16.435-40.335 67.359-42.189 69.509-42.25 0.102 0 0.195 0 0.297 0 2.744 0 5.376 1.075 7.322 3 1.516 1.505 37.069 37.376 20.634 77.711-6.984 17.121-26.829 25.477-44.257 18.616-6.246-2.458-11.489-6.584-15.227-11.837-6.4 1.27-13.087 0.696-19.333-1.761-17.428-6.851-25.928-26.358-18.944-43.479zM469.647 524.37c1.608 0.635 3.297 0.942 4.977 0.942 2.314 0 4.608-0.594 6.687-1.761 2.734-1.546 6.042-1.772 8.97-0.614 2.929 1.147 5.161 3.553 6.052 6.523 1.178 3.901 4.045 7.004 7.875 8.509 3.328 1.3 6.973 1.26 10.26-0.123 3.297-1.382 5.837-3.953 7.168-7.209 9.032-22.17-6.298-44.237-13.117-52.511-10.752 1.311-37.243 6.799-46.336 29.112-1.331 3.267-1.29 6.851 0.123 10.086 1.403 3.236 4.014 5.734 7.342 7.045z" />
</font>
</defs>
</svg>
